<svg width="58" height="59" fill="none" xmlns="http://www.w3.org/2000/svg"><g clip-path="url(#a)" filter="url(#b)"><rect x="4" y=".83" width="50" height="50" rx="19" fill="#740A76"/><path d="M29 33.973a.554.554 0 0 0 .393-.16l5.562-5.358c.08-.08 2.045-1.875 2.045-4.018 0-2.616-1.598-4.178-4.268-4.178-1.562 0-3.027 1.232-3.732 1.928-.705-.696-2.17-1.928-3.732-1.928-2.67 0-4.268 1.562-4.268 4.178 0 2.143 1.964 3.938 2.036 4l5.571 5.375c.107.107.25.16.393.16Z" fill="#fff"/></g><defs><clipPath id="a"><path fill="#fff" transform="translate(4 .83)" d="M0 0h50v50H0z"/></clipPath><filter id="b" x="0" y=".83" width="58" height="58" filterUnits="userSpaceOnUse" color-interpolation-filters="sRGB"><feFlood flood-opacity="0" result="BackgroundImageFix"/><feColorMatrix in="SourceAlpha" values="0 0 0 0 0 0 0 0 0 0 0 0 0 0 0 0 0 0 127 0" result="hardAlpha"/><feOffset dy="4"/><feGaussianBlur stdDeviation="2"/><feColorMatrix values="0 0 0 0 0 0 0 0 0 0 0 0 0 0 0 0 0 0 0.25 0"/><feBlend in2="BackgroundImageFix" result="effect1_dropShadow_1_557"/><feBlend in="SourceGraphic" in2="effect1_dropShadow_1_557" result="shape"/></filter></defs></svg>