<svg width="58" height="59" fill="none" xmlns="http://www.w3.org/2000/svg"><g clip-path="url(#a)" filter="url(#b)"><rect x="4" y=".83" width="50" height="50" rx="19" fill="#02897A"/><path d="m33.116 27.428-9.143-9.143a.534.534 0 0 0-.402-.17.573.573 0 0 0-.571.571v13.43a.573.573 0 0 0 .571.571.568.568 0 0 0 .402-.17l2.786-2.785 1.705 4.036a.574.574 0 0 0 .75.303l1.58-.67a.574.574 0 0 0 .304-.75l-1.794-4.25h3.41a.573.573 0 0 0 .527-.357.55.55 0 0 0-.125-.616Z" fill="#fff"/></g><defs><clipPath id="a"><path fill="#fff" transform="translate(4 .83)" d="M0 0h51v50H0z"/></clipPath><filter id="b" x="0" y=".83" width="59" height="58" filterUnits="userSpaceOnUse" color-interpolation-filters="sRGB"><feFlood flood-opacity="0" result="BackgroundImageFix"/><feColorMatrix in="SourceAlpha" values="0 0 0 0 0 0 0 0 0 0 0 0 0 0 0 0 0 0 127 0" result="hardAlpha"/><feOffset dy="4"/><feGaussianBlur stdDeviation="2"/><feColorMatrix values="0 0 0 0 0 0 0 0 0 0 0 0 0 0 0 0 0 0 0.25 0"/><feBlend in2="BackgroundImageFix" result="effect1_dropShadow_1_541"/><feBlend in="SourceGraphic" in2="effect1_dropShadow_1_541" result="shape"/></filter></defs></svg>